<svg width="178" height="22" viewBox="0 0 178 22" fill="none" xmlns="http://www.w3.org/2000/svg">
<path d="M16.9258 13.5762L19.209 1.09375H23.9668L19.7422 21H14.7656L12.0996 9.65234L9.48828 21H4.52539L0.287109 1.09375H5.05859L7.3418 13.5762L10.0762 1.09375H14.1504L16.9258 13.5762ZM34.2754 10.377L32.7578 10.2676C31.3086 10.2676 30.3789 10.7233 29.9688 11.6348V21H25.3613V6.20703H29.6816L29.832 8.10742C30.6068 6.6582 31.6868 5.93359 33.0723 5.93359C33.5645 5.93359 33.9928 5.98828 34.3574 6.09766L34.2754 10.377ZM40.7969 21H36.1758V6.20703H40.7969V21ZM35.9023 2.39258C35.9023 1.73633 36.1393 1.19857 36.6133 0.779297C37.0872 0.360026 37.7025 0.150391 38.459 0.150391C39.2155 0.150391 39.8307 0.360026 40.3047 0.779297C40.7786 1.19857 41.0156 1.73633 41.0156 2.39258C41.0156 3.04883 40.7786 3.58659 40.3047 4.00586C39.8307 4.42513 39.2155 4.63477 38.459 4.63477C37.7025 4.63477 37.0872 4.42513 36.6133 4.00586C36.1393 3.58659 35.9023 3.04883 35.9023 2.39258ZM49.0137 2.5293V6.20703H51.4473V9.40625H49.0137V16.1738C49.0137 16.7298 49.1139 17.1172 49.3145 17.3359C49.515 17.5547 49.9115 17.6641 50.5039 17.6641C50.9596 17.6641 51.3424 17.6367 51.6523 17.582V20.877C50.8229 21.1413 49.957 21.2734 49.0547 21.2734C47.4688 21.2734 46.2975 20.8997 45.541 20.1523C44.7845 19.4049 44.4062 18.2702 44.4062 16.748V9.40625H42.5195V6.20703H44.4062V2.5293H49.0137ZM58.6387 2.5293V6.20703H61.0723V9.40625H58.6387V16.1738C58.6387 16.7298 58.7389 17.1172 58.9395 17.3359C59.14 17.5547 59.5365 17.6641 60.1289 17.6641C60.5846 17.6641 60.9674 17.6367 61.2773 17.582V20.877C60.4479 21.1413 59.582 21.2734 58.6797 21.2734C57.0938 21.2734 55.9225 20.8997 55.166 20.1523C54.4095 19.4049 54.0312 18.2702 54.0312 16.748V9.40625H52.1445V6.20703H54.0312V2.5293H58.6387ZM70.0547 21.2734C67.7852 21.2734 65.9486 20.599 64.5449 19.25C63.1413 17.8919 62.4395 16.1283 62.4395 13.959V13.5762C62.4395 12.0632 62.7174 10.7279 63.2734 9.57031C63.8385 8.41276 64.6589 7.51953 65.7344 6.89062C66.8099 6.2526 68.0859 5.93359 69.5625 5.93359C71.6406 5.93359 73.2812 6.58073 74.4844 7.875C75.6875 9.16016 76.2891 10.9557 76.2891 13.2617V15.0527H67.1289C67.293 15.8822 67.653 16.5339 68.209 17.0078C68.765 17.4818 69.485 17.7188 70.3691 17.7188C71.8275 17.7188 72.9668 17.2083 73.7871 16.1875L75.8926 18.6758C75.3184 19.4688 74.5026 20.1022 73.4453 20.5762C72.3971 21.041 71.2669 21.2734 70.0547 21.2734ZM69.5352 9.48828C68.1862 9.48828 67.3841 10.3815 67.1289 12.168H71.7773V11.8125C71.7956 11.0742 71.6087 10.5046 71.2168 10.1035C70.8249 9.69336 70.2643 9.48828 69.5352 9.48828ZM82.3867 6.20703L82.5371 7.94336C83.5579 6.60352 84.9661 5.93359 86.7617 5.93359C88.3021 5.93359 89.4505 6.39388 90.207 7.31445C90.9727 8.23503 91.3691 9.62044 91.3965 11.4707V21H86.7754V11.6621C86.7754 10.9147 86.625 10.3678 86.3242 10.0215C86.0234 9.66602 85.4766 9.48828 84.6836 9.48828C83.7812 9.48828 83.1113 9.84375 82.6738 10.5547V21H78.0664V6.20703H82.3867ZM174.986 16.5293C175.715 16.5293 176.322 16.748 176.805 17.1855C177.288 17.6139 177.529 18.1654 177.529 18.8398C177.529 19.5143 177.288 20.0703 176.805 20.5078C176.322 20.9362 175.715 21.1504 174.986 21.1504C174.248 21.1504 173.637 20.9316 173.154 20.4941C172.68 20.0566 172.443 19.5052 172.443 18.8398C172.443 18.1745 172.68 17.623 173.154 17.1855C173.637 16.748 174.248 16.5293 174.986 16.5293Z" fill="white"/>
<path d="M100.475 1.09375L104.918 14.9434L109.348 1.09375H115.664V21H110.852V16.3516L111.316 6.83594L106.504 21H103.332L98.5059 6.82227L98.9707 16.3516V21H94.1719V1.09375H100.475ZM123.375 21H118.754V6.20703H123.375V21ZM118.48 2.39258C118.48 1.73633 118.717 1.19857 119.191 0.779297C119.665 0.360026 120.281 0.150391 121.037 0.150391C121.794 0.150391 122.409 0.360026 122.883 0.779297C123.357 1.19857 123.594 1.73633 123.594 2.39258C123.594 3.04883 123.357 3.58659 122.883 4.00586C122.409 4.42513 121.794 4.63477 121.037 4.63477C120.281 4.63477 119.665 4.42513 119.191 4.00586C118.717 3.58659 118.48 3.04883 118.48 2.39258ZM130.457 6.20703L130.607 7.94336C131.628 6.60352 133.036 5.93359 134.832 5.93359C136.372 5.93359 137.521 6.39388 138.277 7.31445C139.043 8.23503 139.439 9.62044 139.467 11.4707V21H134.846V11.6621C134.846 10.9147 134.695 10.3678 134.395 10.0215C134.094 9.66602 133.547 9.48828 132.754 9.48828C131.852 9.48828 131.182 9.84375 130.744 10.5547V21H126.137V6.20703H130.457ZM141.449 13.4941C141.449 11.1517 141.955 9.30599 142.967 7.95703C143.979 6.60807 145.391 5.93359 147.205 5.93359C148.527 5.93359 149.639 6.45312 150.541 7.49219V0H155.162V21H151.02L150.787 19.4141C149.839 20.6536 148.636 21.2734 147.178 21.2734C145.419 21.2734 144.024 20.599 142.994 19.25C141.964 17.901 141.449 15.9824 141.449 13.4941ZM146.057 13.7812C146.057 16.4062 146.822 17.7188 148.354 17.7188C149.374 17.7188 150.104 17.2904 150.541 16.4336V10.8008C150.122 9.92578 149.402 9.48828 148.381 9.48828C146.959 9.48828 146.189 10.6367 146.07 12.9336L146.057 13.7812ZM165.525 16.8438C165.525 16.4518 165.32 16.1374 164.91 15.9004C164.5 15.6634 163.721 15.4173 162.572 15.1621C161.424 14.9069 160.476 14.5742 159.729 14.1641C158.981 13.7448 158.411 13.2389 158.02 12.6465C157.628 12.054 157.432 11.375 157.432 10.6094C157.432 9.2513 157.992 8.13477 159.113 7.25977C160.234 6.37565 161.702 5.93359 163.516 5.93359C165.466 5.93359 167.034 6.37565 168.219 7.25977C169.404 8.14388 169.996 9.30599 169.996 10.7461H165.375C165.375 9.5612 164.751 8.96875 163.502 8.96875C163.019 8.96875 162.613 9.10547 162.285 9.37891C161.957 9.64323 161.793 9.97591 161.793 10.377C161.793 10.7871 161.993 11.1198 162.395 11.375C162.796 11.6302 163.434 11.8398 164.309 12.0039C165.193 12.168 165.967 12.3639 166.633 12.5918C168.857 13.3574 169.969 14.7292 169.969 16.707C169.969 18.056 169.367 19.1543 168.164 20.002C166.97 20.8496 165.421 21.2734 163.516 21.2734C162.249 21.2734 161.118 21.0456 160.125 20.5898C159.132 20.1341 158.357 19.5143 157.801 18.7305C157.245 17.9466 156.967 17.1217 156.967 16.2559H161.273C161.292 16.9395 161.52 17.4408 161.957 17.7598C162.395 18.0697 162.955 18.2246 163.639 18.2246C164.268 18.2246 164.737 18.097 165.047 17.8418C165.366 17.5866 165.525 17.2539 165.525 16.8438Z" fill="#FC6DAB"/>
</svg>
